# xmcd
#
# Track frame offsets:
#	150
#	19353
#	41708
#	65566
#	83709
#	112143
#	134500
#	155021
#	176158
#	201586
#	225000
#
# Disc length: 3260 seconds
#
# Revision: 0
# Processed by: cddbd v1.5.1PL2 Copyright (c) Steve Scherf et al.
# Submitted via: dBpowerAMP V4.0
#
DISCID=9d0cba0b
DTITLE=Chris Rea - Blue Guitars 1: Beginnings
DYEAR=1900
DGENRE=Blues
TTITLE0=West Africa
TTITLE1=Cry for Home
TTITLE2=The King who sold his own
TTITLE3=White man coming
TTITLE4=Where the Blues come from
TTITLE5=Lord tell me it won´t be long
TTITLE6=Work Gang
TTITLE7=Praise the Lord
TTITLE8=Sweet Sunday
TTITLE9=Sing out the Devil
TTITLE10=Boss Man cut my Chains
EXTD=
EXTT0=
EXTT1=
EXTT2=
EXTT3=
EXTT4=
EXTT5=
EXTT6=
EXTT7=
EXTT8=
EXTT9=
EXTT10=
PLAYORDER=
